<svg xmlns="http://www.w3.org/2000/svg" width="152.081" height="190.695" viewBox="0 0 152.081 190.695">
  <path id="Intersección_2" data-name="Intersección 2" d="M-5622.251,220l-17.585-21.715,21.715-17.584a27.941,27.941,0,0,1,39.3,4.13A27.823,27.823,0,0,1-5573,197.65v9.517a27.835,27.835,0,0,1-9.952,16.968,27.829,27.829,0,0,1-17.568,6.228A27.884,27.884,0,0,1-5622.251,220Zm-25.133-30.63-53.178-65.667,14.662-11.873a19.182,19.182,0,0,1,26.978,2.835l17.161,21.193a.021.021,0,0,0,.028,0l22.675-18.363c12.738-10.314,14.832-29.159,4.292-41.713a29.222,29.222,0,0,0-40.72-3.91l-37.587,30.438a19.024,19.024,0,0,1-26.756-2.813,19.024,19.024,0,0,1,2.812-26.756l37.587-30.437q1.046-.847,2.117-1.646h80.406a67.16,67.16,0,0,1,12.152,11.719A66.27,66.27,0,0,1-5573,74.444v39.71a68.054,68.054,0,0,1-22.323,33.089l-52.035,42.137a.019.019,0,0,1-.012,0A.017.017,0,0,1-5647.384,189.375Z" transform="translate(5724.581 -40.168)" fill="#41c9eb" stroke="rgba(0,0,0,0)" stroke-width="1" opacity="0.29"/>
</svg>
