<svg xmlns="http://www.w3.org/2000/svg" width="807.292" height="575.989" viewBox="0 0 807.292 575.989">
  <path id="Intersección_7" data-name="Intersección 7" d="M-5017.177,704l-93.714-115.728,39.3-31.822a51.408,51.408,0,0,1,72.3,7.6l46,56.8a.052.052,0,0,0,.074.009l60.773-49.213c34.14-27.645,39.753-78.152,11.508-111.8a78.326,78.326,0,0,0-109.14-10.482l-100.744,81.58a50.987,50.987,0,0,1-71.711-7.537A50.99,50.99,0,0,1-5155,451.7l100.743-81.579c77.342-62.631,191.273-50.548,253.747,27,62.514,77.591,49.113,191.526-28.323,254.232L-4893.849,704Zm-440.631,0a77.233,77.233,0,0,0-17.976-53.861,78.38,78.38,0,0,0-91.523-21.251V523.075a180.334,180.334,0,0,1,171.955,64.332A178.124,178.124,0,0,1-5355.926,704Zm161.956-58.634-47.129-58.2,58.2-47.129a74.889,74.889,0,0,1,105.331,11.07,74.891,74.891,0,0,1-11.07,105.332,74.584,74.584,0,0,1-47.084,16.691A74.742,74.742,0,0,1-5295.853,645.366Zm-67.361-82.09-142.525-176,39.3-31.822a51.409,51.409,0,0,1,72.3,7.6l46,56.8a.052.052,0,0,0,.074.009l60.773-49.213c34.141-27.645,39.754-78.154,11.509-111.8a78.328,78.328,0,0,0-109.141-10.48l-100.742,81.579a50.987,50.987,0,0,1-71.711-7.537,50.794,50.794,0,0,1-9.93-20.033V278.306a50.76,50.76,0,0,1,17.466-27.609l100.742-81.579c77.342-62.631,191.273-50.548,253.747,27,62.514,77.593,49.113,191.526-28.322,254.232l-139.464,112.936a.05.05,0,0,1-.033.012A.052.052,0,0,1-5363.213,563.276Z" transform="translate(5567.808 -128.511)" fill="#82848b" stroke="rgba(0,0,0,0)" stroke-width="1" opacity="0.09"/>
</svg>
