<svg xmlns="http://www.w3.org/2000/svg" width="92.738" height="100.029" viewBox="0 0 92.738 100.029">
  <path id="Intersección_5" data-name="Intersección 5" d="M-8066.4-729.216a50,50,0,0,1,28.762-64.6A50.011,50.011,0,0,1-7977-773.128v6.7a46.945,46.945,0,0,0-59.521-24.473,46.94,46.94,0,0,0-26.965,60.561,46.939,46.939,0,0,0,60.562,26.963A46.725,46.725,0,0,0-7977-727.91v6.758a49.786,49.786,0,0,1-24.806,20.7,49.88,49.88,0,0,1-17.91,3.335A50.017,50.017,0,0,1-8066.4-729.216Zm55.861,10.357-2.871-7.476c-.732.218-1.38.488-2.163.646a52.862,52.862,0,0,1-9.661.9l-1.484.053a1.566,1.566,0,0,1-1.622-1.5,1.574,1.574,0,0,1,1.5-1.622l1.5-.051a51.32,51.32,0,0,0,9.084-.83c8.513-1.885,13.372-6.414,12.388-11.56-1.193-6.254-6.729-6.17-15.7-5.294l-1.936.187c-5.8.366-15.344,1.393-17.143-7.98-1.078-5.695,2.637-10.678,9.645-13.567l-2.815-7.339a1.565,1.565,0,0,1,.9-2.019,1.567,1.567,0,0,1,2.019.9l2.854,7.441c.713-.211,1.421-.441,2.181-.62a44.033,44.033,0,0,1,7.415-.838,1.562,1.562,0,0,1,1.631,1.49,1.566,1.566,0,0,1-1.49,1.631,41.126,41.126,0,0,0-6.882.766c-8.517,1.9-13.361,6.412-12.379,11.56,1.062,5.6,5.485,6.221,13.772,5.467l1.921-.173c8.082-.8,17.253-1.706,19.077,7.811,1.087,5.687-2.623,10.694-9.631,13.579l2.81,7.317a1.566,1.566,0,0,1-.9,2.019,1.553,1.553,0,0,1-.555.1A1.569,1.569,0,0,1-8010.542-718.859Z" transform="translate(8069.738 797.15)" fill="#fff"/>
</svg>
