<svg id="Grupo_535" data-name="Grupo 535" xmlns="http://www.w3.org/2000/svg" xmlns:xlink="http://www.w3.org/1999/xlink" width="121.417" height="32.331" viewBox="0 0 121.417 32.331">
  <defs>
    <clipPath id="clip-path">
      <rect id="Rectángulo_264" data-name="Rectángulo 264" width="121.417" height="32.331" fill="#fff"/>
    </clipPath>
  </defs>
  <g id="Grupo_533" data-name="Grupo 533" clip-path="url(#clip-path)">
    <path id="Trazado_1" data-name="Trazado 1" d="M437.964,133.085a.479.479,0,0,1,.123.354v18.846a.508.508,0,0,1-.123.362.461.461,0,0,1-.354.132h-2.155a.408.408,0,0,1-.239-.074.339.339,0,0,1-.14-.189l-.3-1.925a6.011,6.011,0,0,1-2.188,1.933,6.194,6.194,0,0,1-2.9.683,6.424,6.424,0,0,1-3.5-.987,6.831,6.831,0,0,1-2.451-2.714,8.892,8.892,0,0,1-.008-7.731,6.713,6.713,0,0,1,2.443-2.706,6.5,6.5,0,0,1,3.52-.979,6.213,6.213,0,0,1,2.739.6,6,6,0,0,1,2.114,1.7l-.049-6.953a.486.486,0,0,1,.123-.345.44.44,0,0,1,.337-.132h2.648a.479.479,0,0,1,.354.123m-5.51,16.116a4.1,4.1,0,0,0,2.048-3.578,3.943,3.943,0,0,0-.551-2.048,4.044,4.044,0,0,0-1.505-1.472,4.151,4.151,0,0,0-2.089-.543,3.955,3.955,0,0,0-2.032.543,4.064,4.064,0,0,0-2.015,3.52,4.107,4.107,0,0,0,.543,2.081,4.056,4.056,0,0,0,1.472,1.5,3.939,3.939,0,0,0,2.048.551,4.058,4.058,0,0,0,2.081-.551" transform="translate(-397.106 -124.866)" fill="#fff"/>
    <path id="Trazado_2" data-name="Trazado 2" d="M749.841,218.272a.531.531,0,0,1-.1.3l-1.234,1.908a.383.383,0,0,1-.362.214.31.31,0,0,1-.23-.082l-.115-.1a3.185,3.185,0,0,0-1.069-.543,4.15,4.15,0,0,0-1.184-.181,3.634,3.634,0,0,0-1.818.469,3.539,3.539,0,0,0-1.316,1.275,3.35,3.35,0,0,0-.485,1.76v7.583a.414.414,0,0,1-.461.477h-2.632q-.461,0-.461-.477v-13.34a.456.456,0,0,1,.123-.337.478.478,0,0,1,.354-.123h2.089q.395,0,.461.3l.3,1.612a5.5,5.5,0,0,1,1.933-1.719,5.119,5.119,0,0,1,2.459-.633,5.78,5.78,0,0,1,2,.345,4.286,4.286,0,0,1,1.587.987.363.363,0,0,1,.165.313" transform="translate(-693.414 -203.436)" fill="#fff"/>
    <path id="Trazado_3" data-name="Trazado 3" d="M933.091,220.926a7.723,7.723,0,0,1,13.283,0,7.381,7.381,0,0,1,1.02,3.808,7.293,7.293,0,0,1-1.028,3.8,7.791,7.791,0,0,1-10.486,2.747,7.5,7.5,0,0,1-2.788-2.739,7.567,7.567,0,0,1,0-7.616m3.1,5.848a4.057,4.057,0,0,0,1.48,1.489,3.983,3.983,0,0,0,2.056.551,4.106,4.106,0,0,0,3.553-2.032,3.985,3.985,0,0,0,.543-2.048,4.075,4.075,0,0,0-.543-2.064,4.083,4.083,0,0,0-7.09,0,4.077,4.077,0,0,0-.543,2.064,4,4,0,0,0,.543,2.04" transform="translate(-875.308 -203.943)" fill="#fff"/>
    <path id="Trazado_4" data-name="Trazado 4" d="M1242.981,217.883a6.773,6.773,0,0,1,2.443,2.714,8.929,8.929,0,0,1,0,7.731,6.773,6.773,0,0,1-2.443,2.714,6.425,6.425,0,0,1-3.5.987,6.189,6.189,0,0,1-2.714-.592,6.081,6.081,0,0,1-2.122-1.694l.033,5.8a.431.431,0,0,1-.477.477h-2.648a.419.419,0,0,1-.321-.132.485.485,0,0,1-.124-.345V217.817a.485.485,0,0,1,.124-.345.42.42,0,0,1,.321-.132h2.171q.329,0,.378.263l.3,1.908a6.033,6.033,0,0,1,2.18-1.933,6.144,6.144,0,0,1,2.887-.683,6.454,6.454,0,0,1,3.52.987M1240.843,228a4.079,4.079,0,0,0,2.007-3.52,4.107,4.107,0,0,0-.543-2.081,4.064,4.064,0,0,0-1.472-1.5,3.913,3.913,0,0,0-2.032-.551,4.1,4.1,0,0,0-4.129,4.129,3.94,3.94,0,0,0,.551,2.048,4.041,4.041,0,0,0,1.505,1.472,4.151,4.151,0,0,0,2.089.543,3.914,3.914,0,0,0,2.023-.543" transform="translate(-1156.14 -203.689)" fill="#41c9eb"/>
    <path id="Trazado_5" data-name="Trazado 5" d="M1522.3,217.571a5.1,5.1,0,0,1,3.1,4.869v8.669a.507.507,0,0,1-.123.362.439.439,0,0,1-.337.132h-2.007a.38.38,0,0,1-.239-.082.375.375,0,0,1-.14-.2l-.247-1.448a5.226,5.226,0,0,1-2.007,1.587,7.07,7.07,0,0,1-3.01.584,6.342,6.342,0,0,1-2.722-.559,4.245,4.245,0,0,1-2.525-4.014,3.634,3.634,0,0,1,1.283-3.027,5.784,5.784,0,0,1,3.635-1.036l4.869-.016V222.7a2.656,2.656,0,0,0-.839-2.064,3.052,3.052,0,0,0-2.139-.765,9.482,9.482,0,0,0-2.081.238,6.651,6.651,0,0,0-1.818.666,1.064,1.064,0,0,1-.411.1.424.424,0,0,1-.444-.247l-.79-1.53a.653.653,0,0,1-.066-.3.763.763,0,0,1,.477-.658,8.089,8.089,0,0,1,2.377-.921,12.145,12.145,0,0,1,2.772-.329,8.163,8.163,0,0,1,3.43.675m-2.237,11.218a3.262,3.262,0,0,0,1.291-1.086,2.632,2.632,0,0,0,.477-1.53v-.362h-4.392a2.091,2.091,0,0,0-1.349.387,1.309,1.309,0,0,0-.477,1.077,1.61,1.61,0,0,0,.773,1.373,3.273,3.273,0,0,0,1.908.535,4,4,0,0,0,1.768-.395" transform="translate(-1419.976 -203.689)" fill="#41c9eb"/>
    <path id="Trazado_6" data-name="Trazado 6" d="M1767.313,224.019a.33.33,0,0,1,.115.263.437.437,0,0,1-.05.2L1761.7,237.8l-.049.082-1.571,4.32a.573.573,0,0,1-.559.411h-2.451q-.56,0-.559-.395a1.3,1.3,0,0,1,.082-.362l1.637-4.616-5.445-12.765a.44.44,0,0,1-.049-.2.33.33,0,0,1,.115-.263.416.416,0,0,1,.28-.1H1756a.646.646,0,0,1,.378.115.61.61,0,0,1,.23.3l3.488,9.376,3.47-9.376a.609.609,0,0,1,.23-.3.644.644,0,0,1,.378-.115h2.862a.416.416,0,0,1,.28.1" transform="translate(-1646.011 -210.285)" fill="#41c9eb"/>
    <path id="Trazado_7" data-name="Trazado 7" d="M10.719,21.522H0a0,0,0,0,1,0,0V8H3.019a3.07,3.07,0,0,1,3.07,3.07v4.364a0,0,0,0,0,0,0h4.67a4.672,4.672,0,1,0,.064-9.343H3.086A3.045,3.045,0,1,1,3.086,0h7.741a10.761,10.761,0,1,1-.107,21.522" fill="#fff"/>
    <path id="Trazado_8" data-name="Trazado 8" d="M5.146,393.024h0a4.472,4.472,0,0,1-4.472-4.472V384.08H5.146a4.472,4.472,0,0,1,0,8.944" transform="translate(-0.633 -360.693)" fill="#41c9eb"/>
  </g>
</svg>
