<svg xmlns="http://www.w3.org/2000/svg" width="100.107" height="104.865" viewBox="0 0 100.107 104.865">
  <path id="Intersección_6" data-name="Intersección 6" d="M-7688.323-702.961l-20.158-52.514a9.376,9.376,0,0,1,5.394-12.112l87.522-33.6a9.334,9.334,0,0,1,6.566-.057v3.448a6.242,6.242,0,0,0-5.446-.474l-87.523,33.6a6.257,6.257,0,0,0-3.6,8.073l20.158,52.514a6.259,6.259,0,0,0,8.076,3.6L-7609-726.715v3.347l-67.211,25.8a9.352,9.352,0,0,1-3.357.625A9.381,9.381,0,0,1-7688.323-702.961Zm18.963-7.28a10.949,10.949,0,0,0-14.13-6.29,1.562,1.562,0,0,1-2.018-.9,1.561,1.561,0,0,1,.9-2.02,14.078,14.078,0,0,1,18.167,8.089,1.562,1.562,0,0,1-.9,2.02,1.56,1.56,0,0,1-.559.1A1.565,1.565,0,0,1-7669.36-710.24Zm8.885-33.536c-3.773-9.828-.192-20.011,7.868-23.1s17.535,2.077,21.307,11.906c3.711,9.667.188,20.011-7.868,23.1a13.25,13.25,0,0,1-4.767.878C-7650.682-730.991-7657.479-735.969-7660.476-743.776Zm8.987-20.186c-6.435,2.469-9.158,11.023-6.07,19.066s10.835,12.578,17.271,10.107,9.156-11.023,6.069-19.066c-2.516-6.557-8.128-10.782-13.6-10.781A10.189,10.189,0,0,0-7651.488-763.961Zm-45.221,17.358a1.562,1.562,0,0,1,.9-2.018,10.948,10.948,0,0,0,6.292-14.13,1.565,1.565,0,0,1,.9-2.02,1.571,1.571,0,0,1,2.021.9,14.081,14.081,0,0,1-8.089,18.169,1.567,1.567,0,0,1-.56.1A1.565,1.565,0,0,1-7696.709-746.6Zm71.374-40.788a1.563,1.563,0,0,1,.9-2.018,1.562,1.562,0,0,1,2.018.9A10.951,10.951,0,0,0-7609-781.974v3.236a13.947,13.947,0,0,1-3.19.37A14.088,14.088,0,0,1-7625.335-787.392Z" transform="translate(7709.106 801.808)" fill="#fff"/>
</svg>
