<svg xmlns="http://www.w3.org/2000/svg" width="101.435" height="110.232" viewBox="0 0 101.435 110.232">
  <path id="Intersección_4" data-name="Intersección 4" d="M-7173.118,129.4a12.459,12.459,0,0,1-6.586-6.938l-22.4-58.35a12.459,12.459,0,0,1,.252-9.564,12.452,12.452,0,0,1,6.939-6.584l70.018-26.878a12.476,12.476,0,0,1,9.571.247,12.522,12.522,0,0,1,6.579,6.943l7.243,18.867v8.72l-4-10.422-62.726,24.078,10.081,26.257,56.646-21.745v3.348l-55.527,21.314,8.4,21.88,47.127-18.09v3.347l-62.053,23.82a12.445,12.445,0,0,1-4.468.831A12.583,12.583,0,0,1-7173.118,129.4Zm-8.708-21.187,5.039,13.129a9.31,9.31,0,0,0,4.94,5.2,9.308,9.308,0,0,0,7.172.189l13.128-5.039-8.4-21.882Zm-11.2-29.173,10.079,26.256,21.882-8.4-10.079-26.256Zm-.767-28.158a9.306,9.306,0,0,0-5.2,4.938,9.313,9.313,0,0,0-.188,7.174l5.039,13.129,21.882-8.4-8.4-21.882ZM-7123.772,24l-53.973,20.718,8.4,21.88,62.724-24.078-5.04-13.129a9.326,9.326,0,0,0-4.939-5.2,9.332,9.332,0,0,0-3.807-.815A9.377,9.377,0,0,0-7123.772,24Z" transform="translate(7202.936 -20.247)" fill="#fff"/>
</svg>
